<svg width="500" height="300" viewBox="0 0 500 300" fill="none" xmlns="http://www.w3.org/2000/svg">
<rect width="500" height="300" fill="white"/>
<path d="M87.5938 166H82.1094V150.766H70.5078V166H65.0469V131.875H70.5078V146.148H82.1094V131.875H87.5938V166ZM106.273 166.469C104.398 166.469 102.688 166.156 101.141 165.531C99.5938 164.906 98.2656 164.047 97.1562 162.953C96.0625 161.859 95.2109 160.57 94.6016 159.086C93.9922 157.586 93.6875 155.969 93.6875 154.234V153.273C93.6875 151.258 94.0078 149.445 94.6484 147.836C95.3047 146.227 96.1719 144.852 97.25 143.711C98.3438 142.57 99.6094 141.695 101.047 141.086C102.5 140.477 104.023 140.172 105.617 140.172C107.461 140.172 109.086 140.484 110.492 141.109C111.898 141.719 113.07 142.586 114.008 143.711C114.961 144.82 115.68 146.141 116.164 147.672C116.648 149.203 116.891 150.883 116.891 152.711V155.078H99.3125C99.4062 156.062 99.6484 156.977 100.039 157.82C100.43 158.664 100.938 159.398 101.562 160.023C102.203 160.633 102.945 161.117 103.789 161.477C104.648 161.82 105.586 161.992 106.602 161.992C108.023 161.992 109.328 161.711 110.516 161.148C111.719 160.586 112.695 159.812 113.445 158.828L116.492 161.688C116.086 162.297 115.562 162.891 114.922 163.469C114.281 164.031 113.531 164.539 112.672 164.992C111.812 165.43 110.844 165.781 109.766 166.047C108.703 166.328 107.539 166.469 106.273 166.469ZM105.594 144.695C104.812 144.695 104.086 144.836 103.414 145.117C102.742 145.398 102.141 145.812 101.609 146.359C101.078 146.891 100.625 147.547 100.25 148.328C99.8906 149.094 99.6328 149.969 99.4766 150.953H111.359V150.531C111.312 149.781 111.164 149.062 110.914 148.375C110.68 147.672 110.328 147.047 109.859 146.5C109.391 145.953 108.797 145.516 108.078 145.188C107.375 144.859 106.547 144.695 105.594 144.695ZM124.32 130H138.031V161.359H145.766V166H124.32V161.359H132.383V134.664H124.32V130ZM153.148 130H166.859V161.359H174.594V166H153.148V161.359H161.211V134.664H153.148V130ZM179.914 153.086C179.914 151.258 180.18 149.555 180.711 147.977C181.258 146.398 182.031 145.031 183.031 143.875C184.047 142.719 185.281 141.812 186.734 141.156C188.188 140.5 189.836 140.172 191.68 140.172C193.539 140.172 195.195 140.5 196.648 141.156C198.117 141.812 199.352 142.719 200.352 143.875C201.367 145.031 202.141 146.398 202.672 147.977C203.203 149.555 203.469 151.258 203.469 153.086V153.578C203.469 155.422 203.203 157.133 202.672 158.711C202.141 160.289 201.367 161.656 200.352 162.812C199.352 163.953 198.125 164.852 196.672 165.508C195.219 166.164 193.57 166.492 191.727 166.492C189.867 166.492 188.203 166.164 186.734 165.508C185.281 164.852 184.047 163.953 183.031 162.812C182.031 161.656 181.258 160.289 180.711 158.711C180.18 157.133 179.914 155.422 179.914 153.578V153.086ZM185.516 153.578C185.516 154.734 185.633 155.82 185.867 156.836C186.117 157.852 186.492 158.75 186.992 159.531C187.508 160.297 188.156 160.906 188.938 161.359C189.719 161.797 190.648 162.016 191.727 162.016C192.773 162.016 193.68 161.797 194.445 161.359C195.227 160.906 195.867 160.297 196.367 159.531C196.883 158.75 197.258 157.852 197.492 156.836C197.742 155.82 197.867 154.734 197.867 153.578V153.086C197.867 151.961 197.742 150.891 197.492 149.875C197.258 148.859 196.883 147.969 196.367 147.203C195.867 146.438 195.227 145.828 194.445 145.375C193.68 144.922 192.758 144.695 191.68 144.695C190.617 144.695 189.695 144.922 188.914 145.375C188.133 145.828 187.492 146.438 186.992 147.203C186.492 147.969 186.117 148.859 185.867 149.875C185.633 150.891 185.516 151.961 185.516 153.086V153.578ZM222.102 165.227C222.102 166.055 221.992 166.906 221.773 167.781C221.57 168.656 221.266 169.516 220.859 170.359C220.469 171.203 219.992 172 219.43 172.75C218.883 173.516 218.273 174.195 217.602 174.789L214.438 173.125C215.109 172 215.625 170.812 215.984 169.562C216.344 168.328 216.523 166.945 216.523 165.414V160.516H222.125L222.102 165.227ZM284.117 154.258L286.555 131.875H291.805L287.445 166H282.055L278.328 143.312L274.648 166H269.281L264.922 131.875H270.172L272.609 154.141L276.102 131.875H280.508L284.117 154.258ZM295.227 153.086C295.227 151.258 295.492 149.555 296.023 147.977C296.57 146.398 297.344 145.031 298.344 143.875C299.359 142.719 300.594 141.812 302.047 141.156C303.5 140.5 305.148 140.172 306.992 140.172C308.852 140.172 310.508 140.5 311.961 141.156C313.43 141.812 314.664 142.719 315.664 143.875C316.68 145.031 317.453 146.398 317.984 147.977C318.516 149.555 318.781 151.258 318.781 153.086V153.578C318.781 155.422 318.516 157.133 317.984 158.711C317.453 160.289 316.68 161.656 315.664 162.812C314.664 163.953 313.438 164.852 311.984 165.508C310.531 166.164 308.883 166.492 307.039 166.492C305.18 166.492 303.516 166.164 302.047 165.508C300.594 164.852 299.359 163.953 298.344 162.812C297.344 161.656 296.57 160.289 296.023 158.711C295.492 157.133 295.227 155.422 295.227 153.578V153.086ZM300.828 153.578C300.828 154.734 300.945 155.82 301.18 156.836C301.43 157.852 301.805 158.75 302.305 159.531C302.82 160.297 303.469 160.906 304.25 161.359C305.031 161.797 305.961 162.016 307.039 162.016C308.086 162.016 308.992 161.797 309.758 161.359C310.539 160.906 311.18 160.297 311.68 159.531C312.195 158.75 312.57 157.852 312.805 156.836C313.055 155.82 313.18 154.734 313.18 153.578V153.086C313.18 151.961 313.055 150.891 312.805 149.875C312.57 148.859 312.195 147.969 311.68 147.203C311.18 146.438 310.539 145.828 309.758 145.375C308.992 144.922 308.07 144.695 306.992 144.695C305.93 144.695 305.008 144.922 304.227 145.375C303.445 145.828 302.805 146.438 302.305 147.203C301.805 147.969 301.43 148.859 301.18 149.875C300.945 150.891 300.828 151.961 300.828 153.086V153.578ZM342.5 140.172C342.953 140.172 343.406 140.188 343.859 140.219C344.312 140.25 344.742 140.297 345.148 140.359C345.57 140.422 345.953 140.492 346.297 140.57C346.641 140.633 346.93 140.711 347.164 140.805L346.367 146.312C344.648 145.922 342.953 145.727 341.281 145.727C339.406 145.727 337.891 146.117 336.734 146.898C335.594 147.68 334.75 148.766 334.203 150.156V166H328.602V140.641H333.852L334.109 144.602C335.141 143.227 336.359 142.148 337.766 141.367C339.188 140.57 340.766 140.172 342.5 140.172ZM354.945 130H368.656V161.359H376.391V166H354.945V161.359H363.008V134.664H354.945V130ZM381.992 153.133C381.992 151.211 382.227 149.453 382.695 147.859C383.164 146.266 383.836 144.898 384.711 143.758C385.586 142.617 386.641 141.734 387.875 141.109C389.125 140.484 390.523 140.172 392.07 140.172C393.461 140.172 394.688 140.414 395.75 140.898C396.812 141.367 397.742 142.047 398.539 142.938V130H404.164V166H399.078L398.797 163.422C398 164.406 397.039 165.164 395.914 165.695C394.805 166.211 393.508 166.469 392.023 166.469C390.492 166.469 389.109 166.148 387.875 165.508C386.641 164.852 385.586 163.953 384.711 162.812C383.852 161.672 383.18 160.32 382.695 158.758C382.227 157.18 381.992 155.469 381.992 153.625V153.133ZM387.594 153.625C387.594 154.766 387.703 155.836 387.922 156.836C388.141 157.836 388.484 158.711 388.953 159.461C389.438 160.211 390.047 160.805 390.781 161.242C391.531 161.664 392.422 161.875 393.453 161.875C394.734 161.875 395.781 161.602 396.594 161.055C397.406 160.492 398.055 159.742 398.539 158.805V147.789C398.055 146.867 397.398 146.133 396.57 145.586C395.758 145.039 394.734 144.766 393.5 144.766C392.453 144.766 391.555 144.984 390.805 145.422C390.07 145.859 389.461 146.461 388.977 147.227C388.508 147.992 388.156 148.883 387.922 149.898C387.703 150.914 387.594 151.992 387.594 153.133V153.625ZM424.719 154.445H419.422L419.234 131.875H424.906L424.719 154.445ZM418.789 163.211C418.789 162.305 419.07 161.555 419.633 160.961C420.211 160.352 421.031 160.047 422.094 160.047C423.156 160.047 423.977 160.352 424.555 160.961C425.133 161.555 425.422 162.305 425.422 163.211C425.422 164.102 425.133 164.844 424.555 165.438C423.977 166.016 423.156 166.305 422.094 166.305C421.031 166.305 420.211 166.016 419.633 165.438C419.07 164.844 418.789 164.102 418.789 163.211Z" fill="black"/>
</svg>
